<mxfile host="65bd71144e">
    <diagram id="nv1-fZtLTGLuRYKGbRFR" name="Page-1">
        <mxGraphModel dx="1683" dy="2942" grid="1" gridSize="10" guides="1" tooltips="1" connect="1" arrows="1" fold="1" page="1" pageScale="1" pageWidth="2336" pageHeight="1654" math="0" shadow="0">
            <root>
                <mxCell id="0"/>
                <mxCell id="1" value="AWS Account" style="locked=1;" parent="0"/>
                <mxCell id="4" value="AWS Account" style="points=[[0,0],[0.25,0],[0.5,0],[0.75,0],[1,0],[1,0.25],[1,0.5],[1,0.75],[1,1],[0.75,1],[0.5,1],[0.25,1],[0,1],[0,0.75],[0,0.5],[0,0.25]];outlineConnect=0;gradientColor=none;html=1;whiteSpace=wrap;fontSize=12;fontStyle=0;container=1;pointerEvents=0;collapsible=0;recursiveResize=0;shape=mxgraph.aws4.group;grIcon=mxgraph.aws4.group_account;strokeColor=#CD2264;fillColor=none;verticalAlign=top;align=left;spacingLeft=30;fontColor=#CD2264;dashed=0;" parent="1" vertex="1">
                    <mxGeometry x="120" y="-100" width="1440" height="1060" as="geometry"/>
                </mxCell>
                <mxCell id="58" value="VPC" style="locked=1;" parent="0"/>
                <mxCell id="60" value="VPC&lt;span style=&quot;color: rgb(205, 34, 100);&quot;&gt;&amp;nbsp;-&amp;nbsp;&lt;/span&gt;&lt;span style=&quot;border-color: var(--border-color); color: rgb(163, 21, 21); background-color: rgb(255, 255, 255); font-family: &amp;quot;Droid Sans Mono&amp;quot;, &amp;quot;monospace&amp;quot;, monospace; font-size: 14px;&quot;&gt;172.20.0.0/21&lt;/span&gt;" style="points=[[0,0],[0.25,0],[0.5,0],[0.75,0],[1,0],[1,0.25],[1,0.5],[1,0.75],[1,1],[0.75,1],[0.5,1],[0.25,1],[0,1],[0,0.75],[0,0.5],[0,0.25]];outlineConnect=0;gradientColor=none;html=1;whiteSpace=wrap;fontSize=12;fontStyle=0;container=1;pointerEvents=0;collapsible=0;recursiveResize=0;shape=mxgraph.aws4.group;grIcon=mxgraph.aws4.group_vpc;strokeColor=#248814;fillColor=none;verticalAlign=top;align=left;spacingLeft=30;fontColor=#AAB7B8;dashed=0;" vertex="1" parent="58">
                    <mxGeometry x="160" y="-40" width="1360" height="960" as="geometry"/>
                </mxCell>
                <mxCell id="61" value="Subnets" style="locked=1;" parent="0"/>
                <mxCell id="65" value="Public subnet -&amp;nbsp;&lt;span style=&quot;background-color: rgb(255, 255, 255); font-family: &amp;quot;Droid Sans Mono&amp;quot;, &amp;quot;monospace&amp;quot;, monospace; font-size: 14px;&quot;&gt;&lt;font color=&quot;#006600&quot;&gt;172.20.1.0/24&lt;/font&gt;&lt;/span&gt;" style="points=[[0,0],[0.25,0],[0.5,0],[0.75,0],[1,0],[1,0.25],[1,0.5],[1,0.75],[1,1],[0.75,1],[0.5,1],[0.25,1],[0,1],[0,0.75],[0,0.5],[0,0.25]];outlineConnect=0;gradientColor=none;html=1;whiteSpace=wrap;fontSize=12;fontStyle=0;container=1;pointerEvents=0;collapsible=0;recursiveResize=0;shape=mxgraph.aws4.group;grIcon=mxgraph.aws4.group_security_group;grStroke=0;strokeColor=#248814;fillColor=#E9F3E6;verticalAlign=top;align=left;spacingLeft=30;fontColor=#248814;dashed=0;" vertex="1" parent="61">
                    <mxGeometry x="200" y="120" width="400" height="360" as="geometry"/>
                </mxCell>
                <mxCell id="67" value="Public subnet -&amp;nbsp;&lt;span style=&quot;background-color: rgb(255, 255, 255); font-family: &amp;quot;Droid Sans Mono&amp;quot;, &amp;quot;monospace&amp;quot;, monospace; font-size: 14px;&quot;&gt;&lt;font color=&quot;#006600&quot;&gt;172.20.2.0/24&lt;/font&gt;&lt;/span&gt;" style="points=[[0,0],[0.25,0],[0.5,0],[0.75,0],[1,0],[1,0.25],[1,0.5],[1,0.75],[1,1],[0.75,1],[0.5,1],[0.25,1],[0,1],[0,0.75],[0,0.5],[0,0.25]];outlineConnect=0;gradientColor=none;html=1;whiteSpace=wrap;fontSize=12;fontStyle=0;container=1;pointerEvents=0;collapsible=0;recursiveResize=0;shape=mxgraph.aws4.group;grIcon=mxgraph.aws4.group_security_group;grStroke=0;strokeColor=#248814;fillColor=#E9F3E6;verticalAlign=top;align=left;spacingLeft=30;fontColor=#248814;dashed=0;" vertex="1" parent="61">
                    <mxGeometry x="640" y="120" width="400" height="360" as="geometry"/>
                </mxCell>
                <mxCell id="71" value="Public subnet -&amp;nbsp;&lt;span style=&quot;background-color: rgb(255, 255, 255); font-family: &amp;quot;Droid Sans Mono&amp;quot;, &amp;quot;monospace&amp;quot;, monospace; font-size: 14px;&quot;&gt;&lt;font color=&quot;#006600&quot;&gt;172.20.3.0/24&lt;/font&gt;&lt;/span&gt;" style="points=[[0,0],[0.25,0],[0.5,0],[0.75,0],[1,0],[1,0.25],[1,0.5],[1,0.75],[1,1],[0.75,1],[0.5,1],[0.25,1],[0,1],[0,0.75],[0,0.5],[0,0.25]];outlineConnect=0;gradientColor=none;html=1;whiteSpace=wrap;fontSize=12;fontStyle=0;container=1;pointerEvents=0;collapsible=0;recursiveResize=0;shape=mxgraph.aws4.group;grIcon=mxgraph.aws4.group_security_group;grStroke=0;strokeColor=#248814;fillColor=#E9F3E6;verticalAlign=top;align=left;spacingLeft=30;fontColor=#248814;dashed=0;" vertex="1" parent="61">
                    <mxGeometry x="1080" y="120" width="400" height="360" as="geometry"/>
                </mxCell>
                <mxCell id="72" value="Private subnet -&amp;nbsp;&lt;span style=&quot;background-color: rgb(255, 255, 255); font-family: &amp;quot;Droid Sans Mono&amp;quot;, &amp;quot;monospace&amp;quot;, monospace; font-size: 14px;&quot;&gt;&lt;font color=&quot;#3399ff&quot;&gt;172.20.4.0/24&lt;/font&gt;&lt;/span&gt;" style="points=[[0,0],[0.25,0],[0.5,0],[0.75,0],[1,0],[1,0.25],[1,0.5],[1,0.75],[1,1],[0.75,1],[0.5,1],[0.25,1],[0,1],[0,0.75],[0,0.5],[0,0.25]];outlineConnect=0;gradientColor=none;html=1;whiteSpace=wrap;fontSize=12;fontStyle=0;container=1;pointerEvents=0;collapsible=0;recursiveResize=0;shape=mxgraph.aws4.group;grIcon=mxgraph.aws4.group_security_group;grStroke=0;strokeColor=#147EBA;fillColor=#E6F2F8;verticalAlign=top;align=left;spacingLeft=30;fontColor=#147EBA;dashed=0;" vertex="1" parent="61">
                    <mxGeometry x="201" y="520" width="400" height="360" as="geometry"/>
                </mxCell>
                <mxCell id="73" value="Private subnet-&amp;nbsp;&lt;span style=&quot;background-color: rgb(255, 255, 255); font-family: &amp;quot;Droid Sans Mono&amp;quot;, &amp;quot;monospace&amp;quot;, monospace; font-size: 14px;&quot;&gt;&lt;font color=&quot;#3399ff&quot;&gt;172.20.6.0/24&lt;/font&gt;&lt;/span&gt;" style="points=[[0,0],[0.25,0],[0.5,0],[0.75,0],[1,0],[1,0.25],[1,0.5],[1,0.75],[1,1],[0.75,1],[0.5,1],[0.25,1],[0,1],[0,0.75],[0,0.5],[0,0.25]];outlineConnect=0;gradientColor=none;html=1;whiteSpace=wrap;fontSize=12;fontStyle=0;container=1;pointerEvents=0;collapsible=0;recursiveResize=0;shape=mxgraph.aws4.group;grIcon=mxgraph.aws4.group_security_group;grStroke=0;strokeColor=#147EBA;fillColor=#E6F2F8;verticalAlign=top;align=left;spacingLeft=30;fontColor=#147EBA;dashed=0;" vertex="1" parent="61">
                    <mxGeometry x="1080" y="520" width="400" height="360" as="geometry"/>
                </mxCell>
                <mxCell id="74" value="Private subnet -&amp;nbsp;&lt;span style=&quot;background-color: rgb(255, 255, 255); font-family: &amp;quot;Droid Sans Mono&amp;quot;, &amp;quot;monospace&amp;quot;, monospace; font-size: 14px;&quot;&gt;&lt;font color=&quot;#3399ff&quot;&gt;172.20.5.0/24&lt;/font&gt;&lt;/span&gt;" style="points=[[0,0],[0.25,0],[0.5,0],[0.75,0],[1,0],[1,0.25],[1,0.5],[1,0.75],[1,1],[0.75,1],[0.5,1],[0.25,1],[0,1],[0,0.75],[0,0.5],[0,0.25]];outlineConnect=0;gradientColor=none;html=1;whiteSpace=wrap;fontSize=12;fontStyle=0;container=1;pointerEvents=0;collapsible=0;recursiveResize=0;shape=mxgraph.aws4.group;grIcon=mxgraph.aws4.group_security_group;grStroke=0;strokeColor=#147EBA;fillColor=#E6F2F8;verticalAlign=top;align=left;spacingLeft=30;fontColor=#147EBA;dashed=0;" vertex="1" parent="61">
                    <mxGeometry x="640" y="520" width="400" height="360" as="geometry"/>
                </mxCell>
                <mxCell id="75" value="Internet Gateway" style="locked=1;" parent="0" visible="0"/>
                <mxCell id="77" value="Ineternet Gateway&lt;br&gt;ig-xxxxxxxx" style="sketch=0;outlineConnect=0;fontColor=#232F3E;gradientColor=none;fillColor=#4D27AA;strokeColor=none;dashed=0;verticalLabelPosition=bottom;verticalAlign=top;align=center;html=1;fontSize=12;fontStyle=0;aspect=fixed;pointerEvents=1;shape=mxgraph.aws4.internet_gateway;" vertex="1" parent="75">
                    <mxGeometry x="800" width="78" height="78" as="geometry"/>
                </mxCell>
                <mxCell id="130" value="Internet Gateway 25%" parent="0"/>
                <mxCell id="131" value="Ineternet Gateway&lt;br&gt;ig-xxxxxxxx" style="sketch=0;outlineConnect=0;fontColor=#232F3E;gradientColor=none;fillColor=#4D27AA;strokeColor=none;dashed=0;verticalLabelPosition=bottom;verticalAlign=top;align=center;html=1;fontSize=12;fontStyle=0;aspect=fixed;pointerEvents=1;shape=mxgraph.aws4.internet_gateway;opacity=25;textOpacity=25;" vertex="1" parent="130">
                    <mxGeometry x="800" width="78" height="78" as="geometry"/>
                </mxCell>
                <mxCell id="90" value="NAT gateway" style="locked=1;" parent="0" visible="0"/>
                <mxCell id="91" value="NAT Gateway&lt;br&gt;nat-xxxxxxxx" style="sketch=0;outlineConnect=0;fontColor=#232F3E;gradientColor=none;fillColor=#4D27AA;strokeColor=none;dashed=0;verticalLabelPosition=bottom;verticalAlign=top;align=center;html=1;fontSize=12;fontStyle=0;aspect=fixed;pointerEvents=1;shape=mxgraph.aws4.nat_gateway;" vertex="1" parent="90">
                    <mxGeometry x="240" y="240" width="78" height="78" as="geometry"/>
                </mxCell>
                <mxCell id="92" value="NAT Gateway&lt;br&gt;nat-yyyyyyyy" style="sketch=0;outlineConnect=0;fontColor=#232F3E;gradientColor=none;fillColor=#4D27AA;strokeColor=none;dashed=0;verticalLabelPosition=bottom;verticalAlign=top;align=center;html=1;fontSize=12;fontStyle=0;aspect=fixed;pointerEvents=1;shape=mxgraph.aws4.nat_gateway;" vertex="1" parent="90">
                    <mxGeometry x="680" y="240" width="78" height="78" as="geometry"/>
                </mxCell>
                <mxCell id="93" value="NAT gateway&lt;br&gt;nat-zzzzzzzz" style="sketch=0;outlineConnect=0;fontColor=#232F3E;gradientColor=none;fillColor=#4D27AA;strokeColor=none;dashed=0;verticalLabelPosition=bottom;verticalAlign=top;align=center;html=1;fontSize=12;fontStyle=0;aspect=fixed;pointerEvents=1;shape=mxgraph.aws4.nat_gateway;" vertex="1" parent="90">
                    <mxGeometry x="1110" y="240" width="78" height="78" as="geometry"/>
                </mxCell>
                <mxCell id="120" value="NAT Gateway 25%" style="locked=1;" parent="0" visible="0"/>
                <mxCell id="127" value="NAT Gateway&lt;br&gt;nat-xxxxxxxx" style="sketch=0;outlineConnect=0;fontColor=#232F3E;gradientColor=none;fillColor=#4D27AA;strokeColor=none;dashed=0;verticalLabelPosition=bottom;verticalAlign=top;align=center;html=1;fontSize=12;fontStyle=0;aspect=fixed;pointerEvents=1;shape=mxgraph.aws4.nat_gateway;textOpacity=25;opacity=25;" vertex="1" parent="120">
                    <mxGeometry x="240" y="240" width="78" height="78" as="geometry"/>
                </mxCell>
                <mxCell id="128" value="NAT Gateway&lt;br&gt;nat-yyyyyyyy" style="sketch=0;outlineConnect=0;fontColor=#232F3E;gradientColor=none;fillColor=#4D27AA;strokeColor=none;dashed=0;verticalLabelPosition=bottom;verticalAlign=top;align=center;html=1;fontSize=12;fontStyle=0;aspect=fixed;pointerEvents=1;shape=mxgraph.aws4.nat_gateway;textOpacity=25;opacity=25;" vertex="1" parent="120">
                    <mxGeometry x="680" y="240" width="78" height="78" as="geometry"/>
                </mxCell>
                <mxCell id="129" value="NAT gateway&lt;br&gt;nat-zzzzzzzz" style="sketch=0;outlineConnect=0;fontColor=#232F3E;gradientColor=none;fillColor=#4D27AA;strokeColor=none;dashed=0;verticalLabelPosition=bottom;verticalAlign=top;align=center;html=1;fontSize=12;fontStyle=0;aspect=fixed;pointerEvents=1;shape=mxgraph.aws4.nat_gateway;textOpacity=25;opacity=25;" vertex="1" parent="120">
                    <mxGeometry x="1110" y="240" width="78" height="78" as="geometry"/>
                </mxCell>
                <mxCell id="95" value="Route tables" style="locked=1;" parent="0" visible="0"/>
                <mxCell id="105" value="Route table Private C&lt;br&gt;&lt;br&gt;&lt;div style=&quot;&quot;&gt;&lt;span style=&quot;background-color: initial;&quot;&gt;local - 172.20.0.0/21&lt;/span&gt;&lt;/div&gt;&lt;div style=&quot;&quot;&gt;&lt;span style=&quot;background-color: initial;&quot;&gt;0.0.0.0/0 - nat-zzzzzzzz&lt;/span&gt;&lt;/div&gt;" style="sketch=0;outlineConnect=0;fontColor=#232F3E;gradientColor=none;strokeColor=#232F3E;fillColor=#ffffff;dashed=0;verticalLabelPosition=bottom;verticalAlign=top;align=left;html=1;fontSize=12;fontStyle=0;aspect=fixed;shape=mxgraph.aws4.resourceIcon;resIcon=mxgraph.aws4.route_table;" vertex="1" parent="95">
                    <mxGeometry x="1320" y="520" width="60" height="60" as="geometry"/>
                </mxCell>
                <mxCell id="106" value="Route table Private C&lt;br&gt;&lt;br&gt;&lt;div style=&quot;&quot;&gt;&lt;span style=&quot;background-color: initial;&quot;&gt;local - 172.20.0.0/21&lt;/span&gt;&lt;/div&gt;&lt;div style=&quot;&quot;&gt;&lt;span style=&quot;background-color: initial;&quot;&gt;0.0.0.0/0 - nat-yyyyyyyy&lt;/span&gt;&lt;/div&gt;" style="sketch=0;outlineConnect=0;fontColor=#232F3E;gradientColor=none;strokeColor=#232F3E;fillColor=#ffffff;dashed=0;verticalLabelPosition=bottom;verticalAlign=top;align=left;html=1;fontSize=12;fontStyle=0;aspect=fixed;shape=mxgraph.aws4.resourceIcon;resIcon=mxgraph.aws4.route_table;" vertex="1" parent="95">
                    <mxGeometry x="880" y="520" width="60" height="60" as="geometry"/>
                </mxCell>
                <mxCell id="107" value="Route table Private A&lt;br&gt;&lt;br&gt;&lt;div style=&quot;&quot;&gt;&lt;span style=&quot;background-color: initial;&quot;&gt;local - 172.20.0.0/21&lt;/span&gt;&lt;/div&gt;&lt;div style=&quot;&quot;&gt;&lt;span style=&quot;background-color: initial;&quot;&gt;0.0.0.0/0 - nat-xxxxxxxx&lt;/span&gt;&lt;/div&gt;" style="sketch=0;outlineConnect=0;fontColor=#232F3E;gradientColor=none;strokeColor=#232F3E;fillColor=#ffffff;dashed=0;verticalLabelPosition=bottom;verticalAlign=top;align=left;html=1;fontSize=12;fontStyle=0;aspect=fixed;shape=mxgraph.aws4.resourceIcon;resIcon=mxgraph.aws4.route_table;" vertex="1" parent="95">
                    <mxGeometry x="440" y="520" width="60" height="60" as="geometry"/>
                </mxCell>
                <mxCell id="108" value="Route table Public All&lt;br&gt;&lt;br&gt;&lt;div style=&quot;&quot;&gt;&lt;span style=&quot;background-color: initial;&quot;&gt;local - 172.20.0.0/21&lt;/span&gt;&lt;/div&gt;&lt;div style=&quot;&quot;&gt;&lt;span style=&quot;background-color: initial;&quot;&gt;0.0.0.0/0 - ig-xxxxxxxx&lt;/span&gt;&lt;/div&gt;" style="sketch=0;outlineConnect=0;fontColor=#232F3E;gradientColor=none;strokeColor=#232F3E;fillColor=#ffffff;dashed=0;verticalLabelPosition=bottom;verticalAlign=top;align=left;html=1;fontSize=12;fontStyle=0;aspect=fixed;shape=mxgraph.aws4.resourceIcon;resIcon=mxgraph.aws4.route_table;" vertex="1" parent="95">
                    <mxGeometry x="430" y="120" width="60" height="60" as="geometry"/>
                </mxCell>
                <mxCell id="109" value="Route table Public All&lt;br&gt;&lt;br&gt;&lt;div style=&quot;&quot;&gt;&lt;span style=&quot;background-color: initial;&quot;&gt;local - 172.20.0.0/21&lt;/span&gt;&lt;/div&gt;&lt;div style=&quot;&quot;&gt;&lt;span style=&quot;background-color: initial;&quot;&gt;0.0.0.0/0 - ig-xxxxxxxx&lt;/span&gt;&lt;/div&gt;" style="sketch=0;outlineConnect=0;fontColor=#232F3E;gradientColor=none;strokeColor=#232F3E;fillColor=#ffffff;dashed=0;verticalLabelPosition=bottom;verticalAlign=top;align=left;html=1;fontSize=12;fontStyle=0;aspect=fixed;shape=mxgraph.aws4.resourceIcon;resIcon=mxgraph.aws4.route_table;" vertex="1" parent="95">
                    <mxGeometry x="870" y="120" width="60" height="60" as="geometry"/>
                </mxCell>
                <mxCell id="110" value="Route table Public All&lt;br&gt;&lt;br&gt;&lt;div style=&quot;&quot;&gt;&lt;span style=&quot;background-color: initial;&quot;&gt;local - 172.20.0.0/21&lt;/span&gt;&lt;/div&gt;&lt;div style=&quot;&quot;&gt;&lt;span style=&quot;background-color: initial;&quot;&gt;0.0.0.0/0 - ig-xxxxxxxx&lt;/span&gt;&lt;/div&gt;" style="sketch=0;outlineConnect=0;fontColor=#232F3E;gradientColor=none;strokeColor=#232F3E;fillColor=#ffffff;dashed=0;verticalLabelPosition=bottom;verticalAlign=top;align=left;html=1;fontSize=12;fontStyle=0;aspect=fixed;shape=mxgraph.aws4.resourceIcon;resIcon=mxgraph.aws4.route_table;" vertex="1" parent="95">
                    <mxGeometry x="1310" y="120" width="60" height="60" as="geometry"/>
                </mxCell>
                <mxCell id="111" value="Route tables 25%" style="locked=1;" parent="0"/>
                <mxCell id="112" value="Route table Private C&lt;br&gt;&lt;br&gt;&lt;div style=&quot;&quot;&gt;&lt;span style=&quot;background-color: initial;&quot;&gt;local - 172.20.0.0/21&lt;/span&gt;&lt;/div&gt;&lt;div style=&quot;&quot;&gt;&lt;span style=&quot;background-color: initial;&quot;&gt;0.0.0.0/0 - nat-zzzzzzzz&lt;/span&gt;&lt;/div&gt;" style="sketch=0;outlineConnect=0;fontColor=#232F3E;gradientColor=none;strokeColor=#232F3E;fillColor=#ffffff;dashed=0;verticalLabelPosition=bottom;verticalAlign=top;align=left;html=1;fontSize=12;fontStyle=0;aspect=fixed;shape=mxgraph.aws4.resourceIcon;resIcon=mxgraph.aws4.route_table;textOpacity=22;opacity=25;" vertex="1" parent="111">
                    <mxGeometry x="1320" y="520" width="60" height="60" as="geometry"/>
                </mxCell>
                <mxCell id="113" value="Route table Private C&lt;br&gt;&lt;br&gt;&lt;div style=&quot;&quot;&gt;&lt;span style=&quot;background-color: initial;&quot;&gt;local - 172.20.0.0/21&lt;/span&gt;&lt;/div&gt;&lt;div style=&quot;&quot;&gt;&lt;span style=&quot;background-color: initial;&quot;&gt;0.0.0.0/0 - nat-yyyyyyyy&lt;/span&gt;&lt;/div&gt;" style="sketch=0;outlineConnect=0;fontColor=#232F3E;gradientColor=none;strokeColor=#232F3E;fillColor=#ffffff;dashed=0;verticalLabelPosition=bottom;verticalAlign=top;align=left;html=1;fontSize=12;fontStyle=0;aspect=fixed;shape=mxgraph.aws4.resourceIcon;resIcon=mxgraph.aws4.route_table;textOpacity=22;opacity=25;" vertex="1" parent="111">
                    <mxGeometry x="880" y="520" width="60" height="60" as="geometry"/>
                </mxCell>
                <mxCell id="114" value="Route table Private A&lt;br&gt;&lt;br&gt;&lt;div style=&quot;&quot;&gt;&lt;span style=&quot;background-color: initial;&quot;&gt;local - 172.20.0.0/21&lt;/span&gt;&lt;/div&gt;&lt;div style=&quot;&quot;&gt;&lt;span style=&quot;background-color: initial;&quot;&gt;0.0.0.0/0 - nat-xxxxxxxx&lt;/span&gt;&lt;/div&gt;" style="sketch=0;outlineConnect=0;fontColor=#232F3E;gradientColor=none;strokeColor=#232F3E;fillColor=#ffffff;dashed=0;verticalLabelPosition=bottom;verticalAlign=top;align=left;html=1;fontSize=12;fontStyle=0;aspect=fixed;shape=mxgraph.aws4.resourceIcon;resIcon=mxgraph.aws4.route_table;textOpacity=22;opacity=25;" vertex="1" parent="111">
                    <mxGeometry x="440" y="520" width="60" height="60" as="geometry"/>
                </mxCell>
                <mxCell id="115" value="Route table Public All&lt;br&gt;&lt;br&gt;&lt;div style=&quot;&quot;&gt;&lt;span style=&quot;background-color: initial;&quot;&gt;local - 172.20.0.0/21&lt;/span&gt;&lt;/div&gt;&lt;div style=&quot;&quot;&gt;&lt;span style=&quot;background-color: initial;&quot;&gt;0.0.0.0/0 - ig-xxxxxxxx&lt;/span&gt;&lt;/div&gt;" style="sketch=0;outlineConnect=0;fontColor=#232F3E;gradientColor=none;strokeColor=#232F3E;fillColor=#ffffff;dashed=0;verticalLabelPosition=bottom;verticalAlign=top;align=left;html=1;fontSize=12;fontStyle=0;aspect=fixed;shape=mxgraph.aws4.resourceIcon;resIcon=mxgraph.aws4.route_table;textOpacity=22;opacity=25;" vertex="1" parent="111">
                    <mxGeometry x="430" y="120" width="60" height="60" as="geometry"/>
                </mxCell>
                <mxCell id="116" value="Route table Public All&lt;br&gt;&lt;br&gt;&lt;div style=&quot;&quot;&gt;&lt;span style=&quot;background-color: initial;&quot;&gt;local - 172.20.0.0/21&lt;/span&gt;&lt;/div&gt;&lt;div style=&quot;&quot;&gt;&lt;span style=&quot;background-color: initial;&quot;&gt;0.0.0.0/0 - ig-xxxxxxxx&lt;/span&gt;&lt;/div&gt;" style="sketch=0;outlineConnect=0;fontColor=#232F3E;gradientColor=none;strokeColor=#232F3E;fillColor=#ffffff;dashed=0;verticalLabelPosition=bottom;verticalAlign=top;align=left;html=1;fontSize=12;fontStyle=0;aspect=fixed;shape=mxgraph.aws4.resourceIcon;resIcon=mxgraph.aws4.route_table;textOpacity=22;opacity=25;" vertex="1" parent="111">
                    <mxGeometry x="870" y="120" width="60" height="60" as="geometry"/>
                </mxCell>
                <mxCell id="117" value="Route table Public All&lt;br&gt;&lt;br&gt;&lt;div style=&quot;&quot;&gt;&lt;span style=&quot;background-color: initial;&quot;&gt;local - 172.20.0.0/21&lt;/span&gt;&lt;/div&gt;&lt;div style=&quot;&quot;&gt;&lt;span style=&quot;background-color: initial;&quot;&gt;0.0.0.0/0 - ig-xxxxxxxx&lt;/span&gt;&lt;/div&gt;" style="sketch=0;outlineConnect=0;fontColor=#232F3E;gradientColor=none;strokeColor=#232F3E;fillColor=#ffffff;dashed=0;verticalLabelPosition=bottom;verticalAlign=top;align=left;html=1;fontSize=12;fontStyle=0;aspect=fixed;shape=mxgraph.aws4.resourceIcon;resIcon=mxgraph.aws4.route_table;textOpacity=22;opacity=25;" vertex="1" parent="111">
                    <mxGeometry x="1310" y="120" width="60" height="60" as="geometry"/>
                </mxCell>
                <mxCell id="133" value="EC2" style="" parent="0"/>
                <mxCell id="135" value="EC2 Workload&lt;br&gt;Instance 1" style="sketch=0;outlineConnect=0;fontColor=#232F3E;gradientColor=none;fillColor=#D45B07;strokeColor=none;dashed=0;verticalLabelPosition=bottom;verticalAlign=top;align=center;html=1;fontSize=12;fontStyle=0;aspect=fixed;pointerEvents=1;shape=mxgraph.aws4.instance2;" vertex="1" parent="133">
                    <mxGeometry x="375" y="690" width="48" height="48" as="geometry"/>
                </mxCell>
                <mxCell id="136" value="EC2 Workload&lt;br&gt;Instance 2" style="sketch=0;outlineConnect=0;fontColor=#232F3E;gradientColor=none;fillColor=#D45B07;strokeColor=none;dashed=0;verticalLabelPosition=bottom;verticalAlign=top;align=center;html=1;fontSize=12;fontStyle=0;aspect=fixed;pointerEvents=1;shape=mxgraph.aws4.instance2;" vertex="1" parent="133">
                    <mxGeometry x="815" y="690" width="48" height="48" as="geometry"/>
                </mxCell>
                <mxCell id="137" value="EC2 Workload&lt;br&gt;Instance 3" style="sketch=0;outlineConnect=0;fontColor=#232F3E;gradientColor=none;fillColor=#D45B07;strokeColor=none;dashed=0;verticalLabelPosition=bottom;verticalAlign=top;align=center;html=1;fontSize=12;fontStyle=0;aspect=fixed;pointerEvents=1;shape=mxgraph.aws4.instance2;" vertex="1" parent="133">
                    <mxGeometry x="1258" y="690" width="48" height="48" as="geometry"/>
                </mxCell>
                <mxCell id="141" value="Applicaiton Load Balancer" style="" parent="0"/>
                <mxCell id="145" value="Application Load Balancer - muliti-az" style="rounded=0;whiteSpace=wrap;html=1;fillColor=#e1d5e7;strokeColor=none;labelPosition=center;verticalLabelPosition=bottom;align=center;verticalAlign=top;" vertex="1" parent="141">
                    <mxGeometry x="339" y="340" width="1001" height="110" as="geometry"/>
                </mxCell>
                <mxCell id="142" value="" style="sketch=0;outlineConnect=0;fontColor=#232F3E;gradientColor=none;fillColor=#4D27AA;strokeColor=none;dashed=0;verticalLabelPosition=bottom;verticalAlign=top;align=center;html=1;fontSize=12;fontStyle=0;aspect=fixed;pointerEvents=1;shape=mxgraph.aws4.application_load_balancer;" vertex="1" parent="141">
                    <mxGeometry x="360" y="360" width="78" height="78" as="geometry"/>
                </mxCell>
                <mxCell id="143" value="" style="sketch=0;outlineConnect=0;fontColor=#232F3E;gradientColor=none;fillColor=#4D27AA;strokeColor=none;dashed=0;verticalLabelPosition=bottom;verticalAlign=top;align=center;html=1;fontSize=12;fontStyle=0;aspect=fixed;pointerEvents=1;shape=mxgraph.aws4.application_load_balancer;" vertex="1" parent="141">
                    <mxGeometry x="1245" y="360" width="78" height="78" as="geometry"/>
                </mxCell>
                <mxCell id="144" value="" style="sketch=0;outlineConnect=0;fontColor=#232F3E;gradientColor=none;fillColor=#4D27AA;strokeColor=none;dashed=0;verticalLabelPosition=bottom;verticalAlign=top;align=center;html=1;fontSize=12;fontStyle=0;aspect=fixed;pointerEvents=1;shape=mxgraph.aws4.application_load_balancer;" vertex="1" parent="141">
                    <mxGeometry x="800" y="360" width="78" height="78" as="geometry"/>
                </mxCell>
                <mxCell id="148" value="User traffic" style="locked=1;" parent="0"/>
                <mxCell id="150" style="edgeStyle=none;html=1;entryX=0.5;entryY=0;entryDx=0;entryDy=0;fontColor=#3399FF;strokeWidth=3;opacity=40;" edge="1" parent="148" source="149" target="145">
                    <mxGeometry relative="1" as="geometry"/>
                </mxCell>
                <mxCell id="149" value="Site user&lt;br&gt;HTTP" style="sketch=0;outlineConnect=0;fontColor=#232F3E;gradientColor=none;fillColor=#232F3D;strokeColor=none;dashed=0;verticalLabelPosition=bottom;verticalAlign=top;align=center;html=1;fontSize=12;fontStyle=0;aspect=fixed;pointerEvents=1;shape=mxgraph.aws4.user;" vertex="1" parent="148">
                    <mxGeometry x="810" y="-320" width="78" height="78" as="geometry"/>
                </mxCell>
                <mxCell id="151" style="html=1;strokeWidth=3;fontColor=#3399FF;opacity=40;" edge="1" parent="148" source="142" target="135">
                    <mxGeometry relative="1" as="geometry"/>
                </mxCell>
                <mxCell id="152" style="edgeStyle=none;html=1;strokeWidth=3;fontColor=#3399FF;opacity=40;" edge="1" parent="148" source="144" target="136">
                    <mxGeometry relative="1" as="geometry"/>
                </mxCell>
                <mxCell id="153" style="edgeStyle=none;html=1;strokeWidth=3;fontColor=#3399FF;opacity=40;" edge="1" parent="148" source="143" target="137">
                    <mxGeometry relative="1" as="geometry"/>
                </mxCell>
                <mxCell id="159" style="edgeStyle=none;html=1;strokeWidth=3;fontColor=#3399FF;opacity=40;" edge="1" parent="148" source="142" target="136">
                    <mxGeometry relative="1" as="geometry"/>
                </mxCell>
                <mxCell id="160" style="edgeStyle=none;html=1;strokeWidth=3;fontColor=#3399FF;opacity=40;" edge="1" parent="148" source="142" target="137">
                    <mxGeometry relative="1" as="geometry"/>
                </mxCell>
                <mxCell id="161" style="edgeStyle=none;html=1;strokeWidth=3;fontColor=#3399FF;opacity=40;" edge="1" parent="148" source="144" target="135">
                    <mxGeometry relative="1" as="geometry"/>
                </mxCell>
                <mxCell id="162" style="edgeStyle=none;html=1;strokeWidth=3;fontColor=#3399FF;opacity=40;" edge="1" parent="148" source="144" target="137">
                    <mxGeometry relative="1" as="geometry"/>
                </mxCell>
                <mxCell id="163" style="edgeStyle=none;html=1;strokeWidth=3;fontColor=#3399FF;opacity=40;" edge="1" parent="148" source="143" target="135">
                    <mxGeometry relative="1" as="geometry"/>
                </mxCell>
                <mxCell id="164" style="edgeStyle=none;html=1;strokeWidth=3;fontColor=#3399FF;opacity=40;" edge="1" parent="148" source="143" target="136">
                    <mxGeometry relative="1" as="geometry"/>
                </mxCell>
                <mxCell id="165" value="Bastion host" parent="0"/>
                <mxCell id="169" style="edgeStyle=none;html=1;strokeColor=#CC0000;strokeWidth=3;fontColor=#3399FF;opacity=40;dashed=1;" edge="1" parent="165" source="166" target="137">
                    <mxGeometry relative="1" as="geometry"/>
                </mxCell>
                <mxCell id="170" style="edgeStyle=none;html=1;strokeColor=#CC0000;strokeWidth=3;fontColor=#3399FF;opacity=40;dashed=1;" edge="1" parent="165" source="166" target="136">
                    <mxGeometry relative="1" as="geometry"/>
                </mxCell>
                <mxCell id="171" style="edgeStyle=none;html=1;strokeColor=#CC0000;strokeWidth=3;fontColor=#3399FF;opacity=40;dashed=1;" edge="1" parent="165" source="166" target="135">
                    <mxGeometry relative="1" as="geometry"/>
                </mxCell>
                <mxCell id="166" value="Bastion host&lt;br&gt;SSH" style="sketch=0;outlineConnect=0;fontColor=#232F3E;gradientColor=none;fillColor=#D45B07;strokeColor=none;dashed=0;verticalLabelPosition=bottom;verticalAlign=top;align=center;html=1;fontSize=12;fontStyle=0;aspect=fixed;pointerEvents=1;shape=mxgraph.aws4.instance2;" vertex="1" parent="165">
                    <mxGeometry x="240" y="360" width="48" height="48" as="geometry"/>
                </mxCell>
                <mxCell id="168" style="edgeStyle=none;html=1;strokeWidth=3;fontColor=#3399FF;opacity=40;strokeColor=#CC0000;dashed=1;" edge="1" parent="165" source="167" target="166">
                    <mxGeometry relative="1" as="geometry"/>
                </mxCell>
                <mxCell id="167" value="Site Admin&lt;br&gt;SSH" style="sketch=0;outlineConnect=0;fillColor=#CC0000;strokeColor=default;dashed=0;verticalLabelPosition=bottom;verticalAlign=top;align=center;html=1;fontSize=12;fontStyle=0;aspect=fixed;pointerEvents=1;shape=mxgraph.aws4.user;" vertex="1" parent="165">
                    <mxGeometry x="230" y="-310" width="78" height="78" as="geometry"/>
                </mxCell>
            </root>
        </mxGraphModel>
    </diagram>
</mxfile>